<svg width="101" height="94" viewBox="0 0 101 94" fill="none" xmlns="http://www.w3.org/2000/svg">
<path d="M1 0V74H100" stroke="#D7D7D7" stroke-width="2"/>
<path d="M14 61.5L31 42L51.5 35.5L67 22L91.5 13" stroke="#0076D6" stroke-width="3" stroke-linecap="round" stroke-linejoin="round"/>
<path d="M0.764 87V81.216H4.368L4.364 81.864H1.524V83.776H4.076V84.416H1.524V87H0.764ZM7.0055 87V84.536L5.0335 81.216H5.8415L7.3775 83.876L8.8895 81.216H9.7015L7.7415 84.54V87H7.0055ZM12.1444 87V86.548V86.312C12.1444 86.016 12.1991 85.76 12.3084 85.544C12.4204 85.328 12.5671 85.14 12.7484 84.98C12.9324 84.8173 13.1324 84.672 13.3484 84.544C13.5671 84.416 13.7844 84.2933 14.0004 84.176C14.2191 84.056 14.4191 83.932 14.6004 83.804C14.7818 83.6733 14.9271 83.5267 15.0364 83.364C15.1484 83.1987 15.2044 83.004 15.2044 82.78C15.2044 82.4867 15.1004 82.248 14.8924 82.064C14.6871 81.88 14.4084 81.788 14.0564 81.788C13.6778 81.788 13.3738 81.8947 13.1444 82.108C12.9151 82.3213 12.7858 82.6053 12.7564 82.96H12.0204C12.0284 82.6267 12.1111 82.3227 12.2684 82.048C12.4258 81.7707 12.6564 81.5493 12.9604 81.384C13.2644 81.2187 13.6391 81.136 14.0844 81.136C14.4711 81.136 14.8071 81.2053 15.0924 81.344C15.3778 81.48 15.5978 81.672 15.7524 81.92C15.9098 82.1653 15.9884 82.452 15.9884 82.78C15.9884 83.0787 15.9338 83.3347 15.8244 83.548C15.7151 83.7613 15.5698 83.9467 15.3884 84.104C15.2098 84.2587 15.0138 84.3973 14.8004 84.52C14.5871 84.6427 14.3724 84.7613 14.1564 84.876C13.9404 84.988 13.7431 85.1067 13.5644 85.232C13.3858 85.3547 13.2418 85.496 13.1324 85.656C13.0231 85.816 12.9684 86.0067 12.9684 86.228V86.344H16.0204V87H12.1444ZM18.8581 87.088C18.2261 87.088 17.7247 86.84 17.3541 86.344C16.9834 85.8453 16.7981 85.108 16.7981 84.132C16.7981 83.4733 16.8834 82.9213 17.0541 82.476C17.2247 82.0307 17.4647 81.696 17.7741 81.472C18.0834 81.248 18.4474 81.136 18.8661 81.136C19.4927 81.136 19.9914 81.388 20.3621 81.892C20.7354 82.3933 20.9221 83.136 20.9221 84.12C20.9221 85.0987 20.7367 85.8387 20.3661 86.34C19.9954 86.8387 19.4927 87.088 18.8581 87.088ZM18.8661 86.448C19.2794 86.448 19.5914 86.2667 19.8021 85.904C20.0154 85.5387 20.1221 84.9453 20.1221 84.124C20.1221 83.2867 20.0141 82.684 19.7981 82.316C19.5847 81.9453 19.2727 81.76 18.8621 81.76C18.4541 81.76 18.1394 81.9467 17.9181 82.32C17.6994 82.6907 17.5901 83.292 17.5901 84.124C17.5901 84.9427 17.6994 85.5347 17.9181 85.9C18.1367 86.2653 18.4527 86.448 18.8661 86.448ZM21.8085 87V86.548V86.312C21.8085 86.016 21.8632 85.76 21.9725 85.544C22.0845 85.328 22.2312 85.14 22.4125 84.98C22.5965 84.8173 22.7965 84.672 23.0125 84.544C23.2312 84.416 23.4485 84.2933 23.6645 84.176C23.8832 84.056 24.0832 83.932 24.2645 83.804C24.4458 83.6733 24.5912 83.5267 24.7005 83.364C24.8125 83.1987 24.8685 83.004 24.8685 82.78C24.8685 82.4867 24.7645 82.248 24.5565 82.064C24.3512 81.88 24.0725 81.788 23.7205 81.788C23.3418 81.788 23.0378 81.8947 22.8085 82.108C22.5792 82.3213 22.4498 82.6053 22.4205 82.96H21.6845C21.6925 82.6267 21.7752 82.3227 21.9325 82.048C22.0898 81.7707 22.3205 81.5493 22.6245 81.384C22.9285 81.2187 23.3032 81.136 23.7485 81.136C24.1352 81.136 24.4712 81.2053 24.7565 81.344C25.0418 81.48 25.2618 81.672 25.4165 81.92C25.5738 82.1653 25.6525 82.452 25.6525 82.78C25.6525 83.0787 25.5978 83.3347 25.4885 83.548C25.3792 83.7613 25.2338 83.9467 25.0525 84.104C24.8738 84.2587 24.6778 84.3973 24.4645 84.52C24.2512 84.6427 24.0365 84.7613 23.8205 84.876C23.6045 84.988 23.4072 85.1067 23.2285 85.232C23.0498 85.3547 22.9058 85.496 22.7965 85.656C22.6872 85.816 22.6325 86.0067 22.6325 86.228V86.344H25.6845V87H21.8085ZM28.5221 87.088C27.8901 87.088 27.3888 86.84 27.0181 86.344C26.6475 85.8453 26.4621 85.108 26.4621 84.132C26.4621 83.4733 26.5475 82.9213 26.7181 82.476C26.8888 82.0307 27.1288 81.696 27.4381 81.472C27.7475 81.248 28.1115 81.136 28.5301 81.136C29.1568 81.136 29.6555 81.388 30.0261 81.892C30.3995 82.3933 30.5861 83.136 30.5861 84.12C30.5861 85.0987 30.4008 85.8387 30.0301 86.34C29.6595 86.8387 29.1568 87.088 28.5221 87.088ZM28.5301 86.448C28.9435 86.448 29.2555 86.2667 29.4661 85.904C29.6795 85.5387 29.7861 84.9453 29.7861 84.124C29.7861 83.2867 29.6781 82.684 29.4621 82.316C29.2488 81.9453 28.9368 81.76 28.5261 81.76C28.1181 81.76 27.8035 81.9467 27.5821 82.32C27.3635 82.6907 27.2541 83.292 27.2541 84.124C27.2541 84.9427 27.3635 85.5347 27.5821 85.9C27.8008 86.2653 28.1168 86.448 28.5301 86.448Z" fill="black"/>
<path d="M69.764 87V81.216H73.368L73.364 81.864H70.524V83.776H73.076V84.416H70.524V87H69.764ZM76.0055 87V84.536L74.0335 81.216H74.8415L76.3775 83.876L77.8895 81.216H78.7015L76.7415 84.54V87H76.0055ZM81.1444 87V86.548V86.312C81.1444 86.016 81.1991 85.76 81.3084 85.544C81.4204 85.328 81.5671 85.14 81.7484 84.98C81.9324 84.8173 82.1324 84.672 82.3484 84.544C82.5671 84.416 82.7844 84.2933 83.0004 84.176C83.2191 84.056 83.4191 83.932 83.6004 83.804C83.7818 83.6733 83.9271 83.5267 84.0364 83.364C84.1484 83.1987 84.2044 83.004 84.2044 82.78C84.2044 82.4867 84.1004 82.248 83.8924 82.064C83.6871 81.88 83.4084 81.788 83.0564 81.788C82.6778 81.788 82.3738 81.8947 82.1444 82.108C81.9151 82.3213 81.7858 82.6053 81.7564 82.96H81.0204C81.0284 82.6267 81.1111 82.3227 81.2684 82.048C81.4258 81.7707 81.6564 81.5493 81.9604 81.384C82.2644 81.2187 82.6391 81.136 83.0844 81.136C83.4711 81.136 83.8071 81.2053 84.0924 81.344C84.3778 81.48 84.5978 81.672 84.7524 81.92C84.9098 82.1653 84.9884 82.452 84.9884 82.78C84.9884 83.0787 84.9338 83.3347 84.8244 83.548C84.7151 83.7613 84.5698 83.9467 84.3884 84.104C84.2098 84.2587 84.0138 84.3973 83.8004 84.52C83.5871 84.6427 83.3724 84.7613 83.1564 84.876C82.9404 84.988 82.7431 85.1067 82.5644 85.232C82.3858 85.3547 82.2418 85.496 82.1324 85.656C82.0231 85.816 81.9684 86.0067 81.9684 86.228V86.344H85.0204V87H81.1444ZM87.8581 87.088C87.2261 87.088 86.7247 86.84 86.3541 86.344C85.9834 85.8453 85.7981 85.108 85.7981 84.132C85.7981 83.4733 85.8834 82.9213 86.0541 82.476C86.2247 82.0307 86.4647 81.696 86.7741 81.472C87.0834 81.248 87.4474 81.136 87.8661 81.136C88.4927 81.136 88.9914 81.388 89.3621 81.892C89.7354 82.3933 89.9221 83.136 89.9221 84.12C89.9221 85.0987 89.7367 85.8387 89.3661 86.34C88.9954 86.8387 88.4927 87.088 87.8581 87.088ZM87.8661 86.448C88.2794 86.448 88.5914 86.2667 88.8021 85.904C89.0154 85.5387 89.1221 84.9453 89.1221 84.124C89.1221 83.2867 89.0141 82.684 88.7981 82.316C88.5847 81.9453 88.2727 81.76 87.8621 81.76C87.4541 81.76 87.1394 81.9467 86.9181 82.32C86.6994 82.6907 86.5901 83.292 86.5901 84.124C86.5901 84.9427 86.6994 85.5347 86.9181 85.9C87.1367 86.2653 87.4527 86.448 87.8661 86.448ZM90.8085 87V86.548V86.312C90.8085 86.016 90.8632 85.76 90.9725 85.544C91.0845 85.328 91.2312 85.14 91.4125 84.98C91.5965 84.8173 91.7965 84.672 92.0125 84.544C92.2312 84.416 92.4485 84.2933 92.6645 84.176C92.8832 84.056 93.0832 83.932 93.2645 83.804C93.4458 83.6733 93.5912 83.5267 93.7005 83.364C93.8125 83.1987 93.8685 83.004 93.8685 82.78C93.8685 82.4867 93.7645 82.248 93.5565 82.064C93.3512 81.88 93.0725 81.788 92.7205 81.788C92.3418 81.788 92.0378 81.8947 91.8085 82.108C91.5792 82.3213 91.4498 82.6053 91.4205 82.96H90.6845C90.6925 82.6267 90.7752 82.3227 90.9325 82.048C91.0898 81.7707 91.3205 81.5493 91.6245 81.384C91.9285 81.2187 92.3032 81.136 92.7485 81.136C93.1352 81.136 93.4712 81.2053 93.7565 81.344C94.0418 81.48 94.2618 81.672 94.4165 81.92C94.5738 82.1653 94.6525 82.452 94.6525 82.78C94.6525 83.0787 94.5978 83.3347 94.4885 83.548C94.3792 83.7613 94.2338 83.9467 94.0525 84.104C93.8738 84.2587 93.6778 84.3973 93.4645 84.52C93.2512 84.6427 93.0365 84.7613 92.8205 84.876C92.6045 84.988 92.4072 85.1067 92.2285 85.232C92.0498 85.3547 91.9058 85.496 91.7965 85.656C91.6872 85.816 91.6325 86.0067 91.6325 86.228V86.344H94.6845V87H90.8085ZM97.7141 87.088C97.3568 87.088 97.0261 87.0253 96.7221 86.9C96.4181 86.7747 96.1568 86.6 95.9381 86.376C95.7221 86.152 95.5635 85.8947 95.4621 85.604L96.1021 85.336C96.1981 85.5547 96.3181 85.7493 96.4621 85.92C96.6088 86.0907 96.7821 86.224 96.9821 86.32C97.1821 86.416 97.4088 86.464 97.6621 86.464C98.0728 86.464 98.4021 86.3453 98.6501 86.108C98.9008 85.868 99.0261 85.5427 99.0261 85.132C99.0261 84.876 98.9675 84.6533 98.8501 84.464C98.7328 84.272 98.5741 84.1227 98.3741 84.016C98.1768 83.9093 97.9581 83.856 97.7181 83.856C97.5608 83.856 97.4141 83.8707 97.2781 83.9C97.1421 83.9267 97.0075 83.98 96.8741 84.06C96.7408 84.14 96.6008 84.2613 96.4541 84.424C96.4381 84.432 96.4261 84.436 96.4181 84.436C96.4101 84.4333 96.3968 84.428 96.3781 84.42L95.7541 84.224L96.0141 81.216H99.4661L99.4461 81.856H96.6461L96.4981 83.724C96.6901 83.5453 96.8995 83.4187 97.1261 83.344C97.3555 83.2667 97.6035 83.228 97.8701 83.228C98.2195 83.228 98.5408 83.3 98.8341 83.444C99.1301 83.5853 99.3675 83.796 99.5461 84.076C99.7248 84.3533 99.8141 84.6973 99.8141 85.108C99.8141 85.508 99.7275 85.856 99.5541 86.152C99.3808 86.448 99.1368 86.6787 98.8221 86.844C98.5075 87.0067 98.1381 87.088 97.7141 87.088Z" fill="black"/>
</svg>
